<svg width="23" height="20" viewBox="0 0 23 20" fill="none" xmlns="http://www.w3.org/2000/svg">
<path d="M10.7167 19.275C10.4944 19.1917 10.3 19.0667 10.1333 18.9L8.93333 17.8167C6.52222 15.65 4.43056 13.5667 2.65833 11.5667C0.886111 9.56667 0 7.53645 0 5.476C0 3.93356 0.528222 2.63533 1.58467 1.58133C2.64111 0.527111 3.94233 0 5.48833 0C6.37478 0 7.34278 0.244444 8.39233 0.733333C9.44189 1.22222 10.4556 2.22778 11.4333 3.75C12.4222 2.22778 13.4378 1.22222 14.48 0.733333C15.5224 0.244444 16.4917 0 17.3877 0C18.9294 0 20.228 0.527111 21.2833 1.58133C22.3389 2.63533 22.8667 3.93356 22.8667 5.476C22.8667 7.60311 21.9278 9.68889 20.05 11.7333C18.1722 13.7778 16.1333 15.8 13.9333 17.8L12.714 18.9017C12.538 19.0672 12.3333 19.1917 12.1 19.275C11.8667 19.3583 11.6333 19.4 11.4 19.4C11.1667 19.4 10.9389 19.3583 10.7167 19.275ZM11.0093 4.69667C10.2031 3.28778 9.33889 2.29444 8.41667 1.71667C7.49444 1.13889 6.51533 0.85 5.47933 0.85C4.15667 0.85 3.05444 1.28889 2.17267 2.16667C1.29089 3.04444 0.85 4.14711 0.85 5.47467C0.85 6.40289 1.08611 7.342 1.55833 8.292C2.03056 9.24178 2.7 10.2333 3.56667 11.2667C4.43333 12.3 5.47222 13.3944 6.68333 14.55C7.89444 15.7056 9.24444 16.9556 10.7333 18.3C10.9333 18.4778 11.1667 18.5667 11.4333 18.5667C11.7 18.5667 11.9333 18.4778 12.1333 18.3C13.6222 16.9556 14.9722 15.7056 16.1833 14.55C17.3944 13.3944 18.4333 12.3 19.3 11.2667C20.1667 10.2333 20.8361 9.24178 21.3083 8.292C21.7806 7.342 22.0167 6.40289 22.0167 5.47467C22.0167 4.14711 21.5758 3.04444 20.694 2.16667C19.8122 1.28889 18.71 0.85 17.3873 0.85C16.3513 0.85 15.3722 1.13889 14.45 1.71667C13.5278 2.29444 12.6636 3.28778 11.8573 4.69667C11.808 4.78778 11.7442 4.85278 11.666 4.89167C11.5876 4.93056 11.5098 4.95 11.4327 4.95C11.3553 4.95 11.2737 4.93056 11.1877 4.89167C11.1017 4.85278 11.0422 4.78778 11.0093 4.69667Z" fill="#111111"/>
</svg>
