<svg width="10" height="6" viewBox="0 0 10 6" fill="none" xmlns="http://www.w3.org/2000/svg">
<path d="M4.62533 5.025C4.54616 4.99167 4.46908 4.93333 4.39408 4.85L0.106579 0.5625C0.0399123 0.504167 0.00449561 0.433333 0.000328947 0.35C-0.00383772 0.266667 0.031579 0.1875 0.106579 0.1125C0.181579 0.0375 0.256579 0 0.331579 0C0.406579 0 0.481579 0.0375 0.556579 0.1125L4.89408 4.45L9.23158 0.1125C9.28991 0.0541667 9.36075 0.0208333 9.44408 0.0125C9.52741 0.00416667 9.60658 0.0375 9.68158 0.1125C9.75658 0.1875 9.79616 0.2625 9.80033 0.3375C9.8045 0.4125 9.76908 0.4875 9.69408 0.5625L5.40658 4.85C5.32325 4.93333 5.242 4.99167 5.16283 5.025C5.08366 5.05833 4.99408 5.075 4.89408 5.075C4.79408 5.075 4.7045 5.05833 4.62533 5.025Z" fill="white"/>
</svg>
